<?xml version="1.0" encoding="UTF-8" standalone="no"?>
<!DOCTYPE svg PUBLIC "-//W3C//DTD SVG 20010904//EN"
"http://www.w3.org/TR/2001/REC-SVG-20010904/DTD/svg10.dtd">
<!-- Created with Sodipodi ("http://www.sodipodi.com/") -->
<svg
   version="1"
   x="0"
   y="0"
   width="400"
   height="375"
   id="svg101"
   xmlns="http://www.w3.org/2000/svg"
   xmlns:xlink="http://www.w3.org/1999/xlink"
   xmlns:sodipodi="http://sodipodi.sourceforge.net/DTD/sodipodi-0.dtd"
   sodipodi:version="0.31"
   sodipodi:docname="pinkfish.svg">
  <sodipodi:namedview
     id="base" />
  <defs
     id="defs103">
    <linearGradient
       x1="0"
       y1="0"
       x2="1"
       y2="0"
       id="linearGradient2051"
       gradientUnits="objectBoundingBox"
       spreadMethod="pad">
      <stop
         style="stop-color:#000000;stop-opacity:1;"
         offset="0"
         id="stop2052" />
      <stop
         style="stop-color:#ffffff;stop-opacity:1;"
         offset="1"
         id="stop2053" />
    </linearGradient>
    <linearGradient
       x1="0"
       y1="0"
       x2="1"
       y2="0"
       id="linearGradient2054"
       xlink:href="#linearGradient2051"
       gradientUnits="objectBoundingBox"
       spreadMethod="pad" />
  </defs>
  <path
     d="M 473.613 361.355 C 508.072 363.834 510.694 370.858 524.825 378.543 C 537.213 385.498 542.178 386.229 536.972 392.675 C 529.286 401.758 532.986 397.963 523.585 407.797 C 522.269 409.139 518.698 411.794 509.951 411.763 C 505.462 411.748 498.879 406.52 489.87 400.607 C 484.03 397.022 485.564 396.742 475.987 392.922 C 467.659 389.698 462.382 389.971 449.987 389.228 "
     transform="translate(-143.056,-89.2122)"
     style="font-size:12;fill:#ff00ff;fill-rule:evenodd;stroke:#000000;stroke-width:3.125;"
     id="path2095" />
  <path
     d="M 366.494 142.311 C 371.171 147.245 386.139 147.389 401.031 149.814 C 419.853 153.628 443.446 162.193 455.39 172.226 C 475.483 188.95 483.775 201.965 486.934 212.158 C 489.625 220.617 499.764 284.964 498.091 297.576 C 496.392 309.934 478.557 351.607 474.459 359.753 C 470.452 367.912 460.486 379.168 456.3 383.386 C 444.612 395.065 436.808 398.827 427.344 401.84 C 416.911 405.209 384.412 408.167 375.584 408.125 C 367.181 407.955 317.127 410.476 297.387 404.977 C 278.05 399.708 252.506 370.528 252.506 370.528 C 252.506 370.528 229.374 388.221 222.046 394.869 C 217.953 398.382 211.334 401.408 205.909 400.497 C 194.073 398.586 187.169 395.99 180.194 387.885 C 178.717 386.122 169.84 371.331 176.183 365.503 C 193.083 349.386 188.833 335.526 185.284 329.861 C 179.182 320.598 169.193 319.665 162.889 311.005 C 153.623 297.815 154.402 285.051 154.791 280.459 C 155.351 273.418 160.054 268.362 168.4 268.479 C 179.331 268.479 187.575 275.583 189.118 276.449 C 191.995 278.269 199.077 285.606 202.048 286.879 C 208.943 289.728 212.618 286.833 214.136 285.024 C 217.16 281.1 219.607 276.855 220.66 266.827 C 222.222 250.368 229.013 225.061 230.136 206.638 C 230.397 201.078 229.739 200.173 223.115 204.351 C 217.471 208.302 221.057 177.781 227.326 161.213 C 231.992 148.882 244.516 132.517 253.769 127.189 C 270.086 117.65 302.366 106.214 318.923 106.075 C 339.234 105.734 346.012 111.937 350.186 116.807 C 359.622 128.069 359.81 135.463 366.494 142.311 z "
     transform="translate(-144.389,-89.4799)"
     style="font-size:12;fill:#ff00ff;fill-rule:evenodd;stroke:#000000;stroke-width:3.75;"
     id="path2094"
     sodipodi:nodetypes="cccccccccccccccccscccccccccccc" />
  <ellipse
     cx="189.261337"
     cy="145.452423"
     rx="65.045471"
     ry="65.045471"
     transform="matrix(0.974193,0,0,0.935484,4.46454,11.0625)"
     style="font-size:12;fill:#ffffff;stroke:#000000;stroke-width:3.75;"
     id="path131" />
  <path
     d="M 370.724 405.787 C 376.021 406.636 357.883 417.72 351.689 422.404 C 343.598 428.376 337.639 432.222 332.654 434.942 C 324.645 439.447 320.845 440.667 318.001 441.288 C 313.806 442.427 305.728 444.316 299.877 442.49 C 291.853 439.782 288.066 436.217 285.52 432.375 C 282.956 428.577 281.399 424.543 281.442 420.289 C 281.521 412.276 292.325 405.762 296.246 403.369 C 307.878 396.42 313.922 394.909 316.339 394.909 C 318.912 394.909 320.569 398.987 328.575 404.275 C 333.023 407.354 363.37 404.357 370.724 405.787 z "
     transform="translate(-142.987,-89.441)"
     style="font-size:12;fill:#ff00ff;fill-rule:evenodd;stroke:#000000;stroke-width:3.75;"
     id="path2112"
     sodipodi:nodetypes="ccccscccccc" />
  <path
     d="M 313.069 392.735 C 307.487 390.198 304.708 385.687 300.891 381.825 C 296.137 376.759 286.487 363.092 284.909 359.5 C 281.773 351.861 277.55 346.054 279.326 316.117 "
     transform="translate(-140.971,-86.8774)"
     style="font-size:12;fill:none;fill-rule:evenodd;stroke:#000000;stroke-width:2.5;stroke-linecap:round;"
     id="path2114" />
  <path
     d="M 213.872 277.553 C 213.872 277.553 224.527 297.342 218.946 301.148 C 212.083 306.05 206.517 296.826 200.425 294.551 C 197.353 293.658 193.829 293.283 189.77 300.133 C 187.994 304.445 191.783 308.789 193.829 309.773 C 198.547 311.791 199.918 313.833 209.812 317.131 C 220.721 321.19 219.707 321.698 219.96 324.742 C 220.745 334.939 209.353 339.415 205.5 346.307 C 200.436 356.001 201.948 363.559 201.948 363.559 "
     transform="translate(-140.971,-86.8774)"
     style="font-size:12;fill:none;fill-rule:evenodd;stroke:#000000;stroke-width:2.125;stroke-linecap:round;"
     id="path2115" />
  <path
     d="M 226.702 202.543 C 227.012 192.761 232.378 183.347 233.378 180.96 C 236.74 172.783 246.732 163.724 251.7 163.88 "
     transform="translate(-140.971,-86.8774)"
     style="font-size:12;fill:none;fill-rule:evenodd;stroke:#000000;stroke-width:2.125;stroke-linecap:round;"
     id="path2116" />
  <path
     d="M 247.042 134.998 C 249.682 146.179 257.135 156.427 261.793 157.048 C 270.375 157.906 279.805 156.427 292.072 153.166 C 303.834 149.999 312.878 153.943 317.381 151.458 C 325.658 147.044 317.381 140.434 324.679 138.726 C 336.977 135.907 361.169 138.415 361.169 138.415 "
     transform="translate(-140.971,-86.8774)"
     style="font-size:12;fill:none;fill-rule:evenodd;stroke:#000000;stroke-width:2.125;stroke-linecap:round;"
     id="path2117" />
  <path
     d="M 323.904 399.742 C 314.277 404.711 314.898 407.35 311.171 410.455 C 301.719 418.673 293.78 420.393 288.656 420.548 "
     transform="translate(-140.971,-86.8774)"
     style="font-size:12;fill:none;fill-rule:evenodd;stroke:#000000;stroke-width:2;stroke-linecap:round;"
     id="path2118" />
  <path
     d="M 344.866 403.468 C 344.866 403.468 335.734 411.672 331.667 416.511 C 329.627 419.016 323.551 423.308 320.022 425.673 C 317.429 427.524 309.463 428.933 309.463 428.933 "
     transform="translate(-140.971,-86.8774)"
     style="font-size:12;fill:none;fill-rule:evenodd;stroke:#000000;stroke-width:2.25;stroke-linecap:round;"
     id="path2119" />
  <path
     d="M 465.514 366.823 C 465.514 366.823 482.129 368.531 488.961 371.482 C 497.545 375.275 502.644 377.928 506.507 380.177 C 513.521 384.433 518.773 386.544 523.431 388.252 "
     transform="translate(-140.971,-86.8774)"
     style="font-size:12;fill:none;fill-rule:evenodd;stroke:#000000;stroke-width:2;stroke-linecap:round;"
     id="path2120" />
  <path
     d="M 457.595 375.984 C 466.446 374.742 470.957 376.865 478.092 380.021 C 489.188 385.04 492.964 389.381 498.122 391.978 C 505.547 395.94 508.526 397.723 515.668 400.207 "
     transform="translate(-140.971,-86.8774)"
     style="font-size:12;fill:none;fill-rule:evenodd;stroke:#000000;stroke-width:2.25;stroke-linecap:round;"
     id="path2121" />
  <path
     d="M 385.393 333.129 C 385.347 325.359 388.498 318.222 393.777 318.222 C 400.614 318.222 402.843 326.241 402.473 332.818 C 402.075 340.19 400.92 350.239 393.156 350.209 C 386.325 350.183 385.417 336.855 385.393 333.129 z "
     transform="translate(-140.971,-86.8774)"
     style="font-size:12;fill:none;fill-rule:evenodd;stroke:#000000;stroke-width:3.75;"
     id="path2122" />
  <path
     d="M 249.372 368.842 C 246.991 365.633 244.848 364.139 242.229 360.752 C 240.407 358.112 238.878 354.376 237.972 351.489 C 236.505 346.111 236.862 338.797 238.282 332.78 "
     transform="translate(-140.284,-87.4827)"
     style="font-size:12;fill:none;fill-rule:evenodd;stroke:#000000;stroke-width:2.5;stroke-linecap:round;"
     id="path2123" />
  <path
     d="M 238.643 172.599 C 237.177 170.226 234.686 168.273 232.133 166.842 C 230.444 165.943 227.203 164.429 225.454 164.356 "
     transform="translate(-140.971,-86.8774)"
     style="font-size:12;fill:none;fill-rule:evenodd;stroke:#000000;stroke-width:2.125;stroke-linecap:round;"
     id="path2129" />
  <path
     d="M 297.582 151.991 C 297.801 147.546 296.437 141.027 294.543 136.073 C 292.357 131.118 288.317 125.07 283.362 123.758 "
     transform="translate(-140.971,-86.8774)"
     style="font-size:12;fill:none;fill-rule:evenodd;stroke:#000000;stroke-width:2.125;stroke-linecap:round;"
     id="path2130" />
  <path
     d="M 321.681 140.317 C 322.483 134.998 322.573 129.629 321.512 124.924 C 320.656 121.184 317.735 116.695 314.674 114.145 "
     transform="translate(-140.971,-86.8774)"
     style="font-size:12;fill:none;fill-rule:evenodd;stroke:#000000;stroke-width:2.125;stroke-linecap:round;"
     id="path2131" />
  <path
     d="M 227.224 354.346 C 227.915 359.411 225.612 365.166 223.31 368.389 C 219.32 373.576 213.41 375.526 206.504 379.44 C 201.766 381.967 198.677 385.425 197.986 390.72 "
     transform="translate(-140.971,-92.402)"
     style="font-size:12;fill:none;fill-rule:evenodd;stroke:#000000;stroke-width:0.625;stroke-opacity:0;"
     id="path2132" />
  <path
     d="M 188.777 287.813 C 183.943 280.677 179.549 278.831 174.504 277.223 C 170.825 275.821 165.185 276.87 163.454 281.137 C 162.699 282.896 162.302 287.123 162.763 291.497 C 163.713 297.518 165.977 301.953 170.59 302.317 C 174.338 302.631 179.569 305.54 179.339 310.605 "
     transform="translate(-140.05,-86.8774)"
     style="font-size:12;fill:none;fill-rule:evenodd;stroke:#000000;stroke-width:0.625;stroke-opacity:0;"
     id="path2133" />
  <path
     d="M 323.905 240.271 C 323.973 237.565 324.991 234.37 328.097 234.37 C 332.966 234.114 333.843 237.01 333.843 240.116 C 333.843 243.38 332.757 245.576 329.184 245.705 C 325.614 245.828 323.973 243.699 323.905 240.271 z "
     transform="translate(-141.592,-85.6353)"
     style="font-size:12;fill-rule:evenodd;stroke:#000000;stroke-width:1pt;"
     id="path2126" />
  <ellipse
     cx="314.945984"
     cy="151.537323"
     rx="62.317780"
     ry="64.835648"
     transform="matrix(0.973064,0,0,0.954692,11.0014,10.6427)"
     style="font-size:12;fill:#ffffff;stroke:#000000;stroke-width:3.77538;"
     id="path133" />
  <path
     d="M 468.466 240.892 C 468.222 243.528 469.204 245.269 472.484 245.395 C 476.763 245.724 476.385 240.892 476.385 240.892 C 476.637 238.621 474.93 236.699 472.659 236.699 C 469.885 236.545 468.58 238.33 468.466 240.892 z "
     transform="translate(-132.776,-83.1005)"
     style="font-size:12;fill-rule:evenodd;stroke:#000000;stroke-width:1pt;"
     id="path2127" />
</svg>
